<?xml version="1.0" encoding="utf-8"?>
<!-- Generator: Adobe Illustrator 26.0.1, SVG Export Plug-In . SVG Version: 6.00 Build 0)  -->
<svg version="1.1" id="Layer_1" xmlns="http://www.w3.org/2000/svg" xmlns:xlink="http://www.w3.org/1999/xlink" x="0px" y="0px"
	 viewBox="0 0 10 10" style="enable-background:new 0 0 10 10;" xml:space="preserve">
<g>
	<path d="M1,0.54L1,0.54L1,0.54 M5,1l4,0l0,5.73l-0.28,0l-0.89,0c-0.9,0-1.8,0-2.7,0c-0.34,0-0.64,0.12-0.89,0.34
		C3.76,7.49,3.29,7.91,2.82,8.33l0-0.1l0-0.38V7.73c0-0.55-0.45-1-1-1l-0.36,0H1.12L1,6.73L1,1L5,1 M5,0C3.51,0,2.03,0,0.54,0
		C0.17,0,0,0.17,0,0.54c0,2.22,0,4.43,0,6.65c0,0.37,0.17,0.54,0.54,0.54c0.19,0,0.38,0,0.58,0c0.23,0,0.47,0,0.71,0
		c0,0.05,0,0.09,0,0.13c0,0.54,0,1.08,0,1.62c0,0.07,0,0.14,0.02,0.2C1.9,9.88,2.08,10,2.27,10C2.38,10,2.5,9.96,2.6,9.87
		C3.37,9.19,4.13,8.5,4.9,7.82c0.07-0.06,0.13-0.09,0.22-0.09c0,0,0,0,0,0c0.9,0,1.8,0,2.7,0c0.54,0,1.09,0,1.63,0
		C9.83,7.73,10,7.56,10,7.19c0-2.21,0-4.42,0-6.64C10,0.17,9.83,0,9.46,0C7.97,0,6.48,0,5,0L5,0z"/>
</g>
</svg>
