<?xml version="1.0" encoding="utf-8"?>
<!-- Generator: Adobe Illustrator 26.0.1, SVG Export Plug-In . SVG Version: 6.00 Build 0)  -->
<svg version="1.1" id="Layer_1" xmlns="http://www.w3.org/2000/svg" xmlns:xlink="http://www.w3.org/1999/xlink" x="0px" y="0px"
	 viewBox="0 0 50 50" style="enable-background:new 0 0 50 50;" xml:space="preserve">
<style type="text/css">
	.st0{fill:#B4FE98;}
</style>
<g>
	<path class="st0" d="M17.29,18.27c-0.57,0-1.13,0-1.69,0c-0.71,0-1.42,0.01-2.13,0c-0.56-0.01-0.98-0.44-0.97-0.97
		c0.01-0.52,0.42-0.94,0.97-0.94c1.16-0.01,2.32,0,3.48,0c0.11,0,0.22,0,0.34,0c0.04-0.51,0.19-0.96,0.54-1.32
		c0.37-0.39,0.83-0.59,1.36-0.6c0.56-0.01,1.12,0,1.68,0c1.33,0,2.02,0.59,2.22,1.92c0.11,0,0.23,0,0.35,0c4.29,0,8.59,0,12.88,0
		c0.12,0,0.24-0.01,0.36,0.01c0.48,0.08,0.83,0.52,0.8,1.01c-0.03,0.47-0.41,0.86-0.89,0.9c-0.11,0.01-0.22,0-0.33,0
		c-4.27,0-8.55,0-12.82,0c-0.12,0-0.24,0-0.35,0c-0.17,1.11-0.7,1.78-1.63,1.87c-0.85,0.09-1.72,0.09-2.57,0
		C17.97,20.04,17.42,19.32,17.29,18.27z"/>
	<path class="st0" d="M24.99,24.03c0.14-1.25,0.89-1.92,2.11-1.92c0.49,0,0.98,0,1.47,0c1.33,0,2.02,0.59,2.22,1.92
		c0.1,0,0.21,0,0.32,0c1.79,0,3.58,0,5.37,0c0.78,0,1.26,0.77,0.89,1.42c-0.2,0.35-0.52,0.5-0.92,0.5c-1.77,0-3.54,0-5.31,0
		c-0.11,0-0.22,0-0.34,0c-0.03,0.15-0.05,0.28-0.08,0.42c-0.19,0.85-0.92,1.48-1.79,1.5c-0.69,0.02-1.38,0.02-2.07,0
		c-1.01-0.03-1.73-0.77-1.87-1.92c-0.11,0-0.23,0-0.35,0c-3.69,0-7.39,0-11.08,0c-0.76,0-1.24-0.64-0.99-1.3
		c0.15-0.39,0.5-0.62,0.97-0.62c1.68,0,3.36,0,5.04,0c2.02,0,4.04,0,6.07,0C24.75,24.03,24.86,24.03,24.99,24.03z"/>
	<path class="st0" d="M23.09,33.64c-0.14,1.25-0.89,1.92-2.11,1.92c-0.48,0-0.96-0.03-1.44,0.01c-1.07,0.08-2.1-0.52-2.25-1.93
		c-0.1,0-0.21,0-0.32,0c-1.13,0-2.26,0-3.39,0c-0.63,0-1.07-0.4-1.07-0.97c0-0.57,0.44-0.95,1.08-0.96c1.21,0,2.42,0,3.63,0
		c0.02,0,0.04-0.01,0.07-0.02c0.04-0.18,0.06-0.36,0.11-0.54c0.24-0.79,0.96-1.34,1.79-1.36c0.59-0.01,1.18,0,1.77,0
		c1.25,0,1.98,0.65,2.13,1.92c0.11,0,0.23,0,0.35,0c4.33,0,8.67,0,13,0c0.76,0,1.24,0.64,0.99,1.3c-0.15,0.38-0.49,0.62-0.94,0.62
		c-0.8,0-1.6,0-2.4,0c-3.54,0-7.09,0-10.63,0C23.34,33.64,23.22,33.64,23.09,33.64z"/>
</g>
</svg>
