<?xml version="1.0" encoding="utf-8"?>
<!-- Generator: Adobe Illustrator 26.0.1, SVG Export Plug-In . SVG Version: 6.00 Build 0)  -->
<svg version="1.1" id="Layer_1" xmlns="http://www.w3.org/2000/svg" xmlns:xlink="http://www.w3.org/1999/xlink" x="0px" y="0px"
	 viewBox="0 0 10 10" style="enable-background:new 0 0 10 10;" xml:space="preserve">
<style type="text/css">
	.st0{fill:#FFFFFF;}
</style>
<path class="st0" d="M5.27,0c0.19,0.03,0.39,0.06,0.58,0.1c1.07,0.23,1.88,0.82,2.44,1.75c0.4,0.67,0.56,1.41,0.52,2.18
	c-0.05,0.85-0.37,1.6-0.9,2.26c-0.95,1.2-1.89,2.41-2.83,3.62C5.05,9.94,5.02,9.97,4.99,10c-0.07-0.09-0.14-0.18-0.2-0.26
	C3.86,8.55,2.93,7.36,2,6.17c-0.44-0.56-0.72-1.2-0.79-1.91c-0.14-1.5,0.41-2.68,1.61-3.57c0.48-0.35,1.02-0.55,1.6-0.64
	C4.58,0.03,4.74,0.02,4.89,0C5.02,0,5.14,0,5.27,0z M2.93,3.81c0,1.14,0.92,2.04,2.01,2.05c1.18,0.01,2.11-0.91,2.11-2.06
	c0-1.15-0.94-2.07-2.11-2.05C3.85,1.77,2.93,2.68,2.93,3.81z"/>
</svg>
